<?xml version="1.0" encoding="utf-8"?>
<!-- Generator: Adobe Illustrator 23.0.5, SVG Export Plug-In . SVG Version: 6.00 Build 0)  -->
<svg version="1.1" id="Layer_1" xmlns="http://www.w3.org/2000/svg" xmlns:xlink="http://www.w3.org/1999/xlink" x="0px" y="0px"
	 viewBox="0 0 1100 825" style="enable-background:new 0 0 1100 825;" xml:space="preserve">
<style type="text/css">
	.st0{fill:#FFFFFF;}
	.st1{fill:#01008E;}
	.st2{fill:#FFF800;}
	.st3{fill:#FF3535;}
</style>
<g>
	<g>
		<path class="st0" d="M0,0.5h1100v825H0V0.5z M168.15,303.61c7.7,36.35,15.64,72.65,23.28,109c-1.79,10.84-4.55,21.55-6.71,32.34
			c-5.54,25.8-11.04,51.61-16.59,77.41c254.69,0.03,509.37,0.02,764.05,0.01c-7.68-35.98-15.4-71.96-23.1-107.94
			c-0.53-1.98,0.28-3.95,0.63-5.88c7.52-34.96,14.99-69.94,22.47-104.92C677.51,303.61,422.83,303.64,168.15,303.61z"/>
	</g>
</g>
<g>
	<g>
		<path class="st1" d="M168.15,303.61c254.68,0.03,509.36,0,764.03,0.02c-7.48,34.98-14.95,69.96-22.47,104.92
			c-0.35,1.93-1.16,3.9-0.63,5.88c7.7,35.98,15.42,71.96,23.1,107.94c-254.68,0.01-509.36,0.02-764.05-0.01
			c5.55-25.8,11.05-51.61,16.59-77.41c2.16-10.79,4.92-21.5,6.71-32.34C183.79,376.26,175.85,339.96,168.15,303.61z M215,332
			c0.01,54-0.02,108.01,0.01,162.01c221.95-0.02,443.9-0.01,665.85-0.01c0.03-54,0.01-108,0.02-162
			C658.92,331.99,436.96,332,215,332z"/>
	</g>
	<g>
		<path class="st1" d="M635.5,377.19c8.47-1.8,17.57-1.45,25.63,1.87c9.46,3.89,16.72,12.45,19.32,22.32
			c2.01,7.65,2.04,15.84,0.14,23.52c-2.52,10.26-10.11,19.19-19.98,23.06c-13.72,5.12-31,3.38-41.6-7.41
			c-6.11-6.08-9.46-14.52-10.02-23.05c-0.61-8.31,0.51-17.01,4.74-24.31C618.31,385.11,626.41,379.14,635.5,377.19z M638.42,392.17
			c-6.29,2.42-10.41,8.73-11.37,15.25c-1.11,7.62-0.56,16.3,4.68,22.4c6.71,8.17,20.81,8,27.51-0.09
			c4.29-4.95,5.34-11.84,5.06-18.18c-0.25-5.56-1.85-11.39-5.92-15.39C653.35,390.89,645.09,389.73,638.42,392.17z"/>
	</g>
	<path class="st1" d="M719.48,377.15c7.14-1.46,14.62-1.38,21.74,0.21c6.21,1.41,12.17,5,15.29,10.69c2.01,3.48,2.67,7.5,3.03,11.44
		c-5.37,0.02-10.73,0.01-16.09,0.01c-0.31-3.62-1.96-7.53-5.63-8.81c-4.68-1.59-10.03-1.77-14.7-0.1
		c-4.92,1.66-5.31,9.29-0.88,11.74c4.85,2.66,10.49,3.03,15.81,4.15c6.71,1.34,13.78,3.24,18.84,8.12
		c5.47,5.52,6.04,14.31,3.72,21.39c-2.45,7.19-9.52,11.63-16.61,13.3c-7.32,1.72-15.02,1.78-22.41,0.5
		c-7-1.27-13.96-4.83-17.78-11.04c-2.53-3.92-3.4-8.64-3.51-13.23c5.48-0.04,10.97-0.01,16.46-0.02c0.17,3.91,1.4,8.47,5.4,10.08
		c5.64,2.21,12.33,2.55,18.01,0.31c5.15-2.04,5.63-10.68,0.18-12.65c-9.94-4-21.71-2.88-30.62-9.53c-7.78-5.34-9.79-16.41-6.26-24.8
		C706.27,382.48,712.83,378.54,719.48,377.15z"/>
	<g>
		<path class="st1" d="M274.61,377.77c6.75-0.05,13.49-0.01,20.24-0.02c8.98,23.74,17.89,47.5,26.84,71.25c-6.03,0-12.05,0-18.08,0
			c-1.37-4.12-2.81-8.23-4.16-12.36c-9.82-0.04-19.64-0.01-29.46-0.01c-1.38,4.11-2.78,8.22-4.08,12.36
			c-5.83,0.01-11.66,0.02-17.48,0C257.14,425.24,265.91,401.52,274.61,377.77z M284.58,392.6c-3.2,10-6.54,19.95-9.88,29.9
			c6.63,0,13.27,0,19.9,0C291.29,412.52,287.86,402.59,284.58,392.6z"/>
	</g>
	<path class="st1" d="M341.37,377.75c8.47-0.01,16.93,0.01,25.39-0.01c4.86,15.96,10.03,31.83,14.23,47.98
		c3.99-16.19,9.19-32.04,14.06-47.97c8.48,0,16.96,0,25.44-0.01c0.02,23.75,0.01,47.51,0.01,71.26c-5.43-0.01-10.85,0.03-16.27-0.03
		c0.03-18.11-0.11-36.21,0.51-54.31c-5.21,18.24-11.28,36.22-16.87,54.35c-4.65-0.02-9.3-0.01-13.94-0.01
		c-5.65-18.09-11.56-36.1-16.83-54.31c0.58,18.1,0.37,36.2,0.4,54.31c-5.38,0-10.75-0.01-16.12,0
		C341.36,425.25,341.38,401.5,341.37,377.75z"/>
	<path class="st1" d="M446.37,377.75c18.17-0.01,36.34,0,54.5,0c0.01,5.08,0.01,10.17,0,15.26c-12.5-0.02-24.99,0-37.48-0.01
		c-0.02,4.25-0.03,8.5,0,12.75c11.37-0.01,22.73,0,34.1-0.01c0.01,4.75,0.01,9.5,0.01,14.25c-11.37,0.02-22.74,0.01-34.11,0.01
		c-0.02,4.62-0.02,9.25,0,13.88c12.45-0.01,24.9-0.01,37.36-0.01c0,5.05,0.01,10.09-0.01,15.14c-18.12-0.02-36.24-0.01-54.36-0.01
		C446.36,425.25,446.38,401.5,446.37,377.75z"/>
	<path class="st1" d="M783.88,377.75c5.66-0.01,11.32,0,16.99,0c0.01,9.08,0,18.16,0.01,27.25c9.5,0,18.99,0,28.49,0
		c0.01-9.08,0-18.17,0-27.25c5.65-0.03,11.3,0.04,16.95-0.04c0.13,23.76,0.02,47.53,0.05,71.29c-5.66,0-11.33-0.01-16.99,0
		c-0.02-9.58,0-19.16-0.01-28.74c-9.5-0.01-18.99-0.01-28.49,0c-0.01,9.58,0,19.16,0,28.74c-5.67,0-11.34,0-17,0
		C783.87,425.25,783.87,401.5,783.88,377.75z"/>
</g>
<g>
	<g>
		<path class="st2" d="M215,332c221.96,0,443.92-0.01,665.88,0c-0.01,54,0.01,108-0.02,162c-221.95,0-443.9-0.01-665.85,0.01
			C214.98,440.01,215.01,386,215,332z M635.5,377.19c-9.09,1.95-17.19,7.92-21.77,16c-4.23,7.3-5.35,16-4.74,24.31
			c0.56,8.53,3.91,16.97,10.02,23.05c10.6,10.79,27.88,12.53,41.6,7.41c9.87-3.87,17.46-12.8,19.98-23.06
			c1.9-7.68,1.87-15.87-0.14-23.52c-2.6-9.87-9.86-18.43-19.32-22.32C653.07,375.74,643.97,375.39,635.5,377.19z M719.48,377.15
			c-6.65,1.39-13.21,5.33-16.01,11.76c-3.53,8.39-1.52,19.46,6.26,24.8c8.91,6.65,20.68,5.53,30.62,9.53
			c5.45,1.97,4.97,10.61-0.18,12.65c-5.68,2.24-12.37,1.9-18.01-0.31c-4-1.61-5.23-6.17-5.4-10.08c-5.49,0.01-10.98-0.02-16.46,0.02
			c0.11,4.59,0.98,9.31,3.51,13.23c3.82,6.21,10.78,9.77,17.78,11.04c7.39,1.28,15.09,1.22,22.41-0.5
			c7.09-1.67,14.16-6.11,16.61-13.3c2.32-7.08,1.75-15.87-3.72-21.39c-5.06-4.88-12.13-6.78-18.84-8.12
			c-5.32-1.12-10.96-1.49-15.81-4.15c-4.43-2.45-4.04-10.08,0.88-11.74c4.67-1.67,10.02-1.49,14.7,0.1
			c3.67,1.28,5.32,5.19,5.63,8.81c5.36,0,10.72,0.01,16.09-0.01c-0.36-3.94-1.02-7.96-3.03-11.44c-3.12-5.69-9.08-9.28-15.29-10.69
			C734.1,375.77,726.62,375.69,719.48,377.15z M274.61,377.77c-8.7,23.75-17.47,47.47-26.18,71.22c5.82,0.02,11.65,0.01,17.48,0
			c1.3-4.14,2.7-8.25,4.08-12.36c9.82,0,19.64-0.03,29.46,0.01c1.35,4.13,2.79,8.24,4.16,12.36c6.03,0,12.05,0,18.08,0
			c-8.95-23.75-17.86-47.51-26.84-71.25C288.1,377.76,281.36,377.72,274.61,377.77z M341.37,377.75c0.01,23.75-0.01,47.5,0.01,71.25
			c5.37-0.01,10.74,0,16.12,0c-0.03-18.11,0.18-36.21-0.4-54.31c5.27,18.21,11.18,36.22,16.83,54.31c4.64,0,9.29-0.01,13.94,0.01
			c5.59-18.13,11.66-36.11,16.87-54.35c-0.62,18.1-0.48,36.2-0.51,54.31c5.42,0.06,10.84,0.02,16.27,0.03
			c0-23.75,0.01-47.51-0.01-71.26c-8.48,0.01-16.96,0.01-25.44,0.01c-4.87,15.93-10.07,31.78-14.06,47.97
			c-4.2-16.15-9.37-32.02-14.23-47.98C358.3,377.76,349.84,377.74,341.37,377.75z M446.37,377.75c0.01,23.75-0.01,47.5,0.01,71.25
			c18.12,0,36.24-0.01,54.36,0.01c0.02-5.05,0.01-10.09,0.01-15.14c-12.46,0-24.91,0-37.36,0.01c-0.02-4.63-0.02-9.26,0-13.88
			c11.37,0,22.74,0.01,34.11-0.01c0-4.75,0-9.5-0.01-14.25c-11.37,0.01-22.73,0-34.1,0.01c-0.03-4.25-0.02-8.5,0-12.75
			c12.49,0.01,24.98-0.01,37.48,0.01c0.01-5.09,0.01-10.18,0-15.26C482.71,377.75,464.54,377.74,446.37,377.75z M523.38,377.76
			c0.01,23.75-0.03,47.5,0.02,71.25c5.36-0.02,10.72,0,16.09-0.02c-0.01-15.76,0.14-31.52-0.28-47.28
			c8.87,16.14,18.73,31.72,28.44,47.35c6.08-0.14,12.15-0.02,18.23-0.08c-0.02-23.74,0.02-47.49-0.02-71.23
			c-5.44,0.08-10.89-0.21-16.32,0.17c0.16,15.78,0.03,31.57,0.46,47.36c-8.67-16.29-18.83-31.7-28.3-47.51
			C535.59,377.72,529.49,377.74,523.38,377.76z M783.88,377.75c-0.01,23.75-0.01,47.5,0,71.25c5.66,0,11.33,0,17,0
			c0-9.58-0.01-19.16,0-28.74c9.5-0.01,18.99-0.01,28.49,0c0.01,9.58-0.01,19.16,0.01,28.74c5.66-0.01,11.33,0,16.99,0
			c-0.03-23.76,0.08-47.53-0.05-71.29c-5.65,0.08-11.3,0.01-16.95,0.04c0,9.08,0.01,18.17,0,27.25c-9.5,0-18.99,0-28.49,0
			c-0.01-9.09,0-18.17-0.01-27.25C795.2,377.75,789.54,377.74,783.88,377.75z"/>
	</g>
	<path class="st2" d="M638.42,392.17c6.67-2.44,14.93-1.28,19.96,3.99c4.07,4,5.67,9.83,5.92,15.39c0.28,6.34-0.77,13.23-5.06,18.18
		c-6.7,8.09-20.8,8.26-27.51,0.09c-5.24-6.1-5.79-14.78-4.68-22.4C628.01,400.9,632.13,394.59,638.42,392.17z"/>
	<path class="st2" d="M284.58,392.6c3.28,9.99,6.71,19.92,10.02,29.9c-6.63,0-13.27,0-19.9,0
		C278.04,412.55,281.38,402.6,284.58,392.6z"/>
</g>
<g>
	<path class="st3" d="M523.38,377.76c6.11-0.02,12.21-0.04,18.32,0.01c9.47,15.81,19.63,31.22,28.3,47.51
		c-0.43-15.79-0.3-31.58-0.46-47.36c5.43-0.38,10.88-0.09,16.32-0.17c0.04,23.74,0,47.49,0.02,71.23
		c-6.08,0.06-12.15-0.06-18.23,0.08c-9.71-15.63-19.57-31.21-28.44-47.35c0.42,15.76,0.27,31.52,0.28,47.28
		c-5.37,0.02-10.73,0-16.09,0.02C523.35,425.26,523.39,401.51,523.38,377.76z"/>
</g>
</svg>
